<?xml version="1.0" standalone="no"?>
<!DOCTYPE svg PUBLIC "-//W3C//DTD SVG 20010904//EN"
 "http://www.w3.org/TR/2001/REC-SVG-20010904/DTD/svg10.dtd">
<svg version="1.0" xmlns="http://www.w3.org/2000/svg"
 width="1080.000000pt" height="1080.000000pt" viewBox="0 0 1080.000000 1080.000000"
 preserveAspectRatio="xMidYMid meet">

<g transform="translate(0.000000,1080.000000) scale(0.100000,-0.100000)"
fill="#000000" stroke="none">
<path d="M4825 9509 c-361 -32 -745 -138 -1053 -293 -202 -101 -419 -248 -547
-370 l-70 -66 95 57 c306 183 674 283 1047 283 429 0 916 -161 1338 -443 223
-149 374 -273 655 -537 107 -101 236 -215 285 -255 264 -211 533 -348 795
-406 88 -20 133 -24 275 -23 149 0 183 3 275 26 129 32 208 61 325 121 289
145 563 392 807 728 78 106 238 363 238 381 0 5 -32 -19 -70 -54 -301 -270
-713 -359 -1165 -253 -360 85 -704 249 -1265 605 -266 169 -331 207 -445 259
-421 195 -994 285 -1520 240z"/>
<path d="M2355 7898 c-3 -7 -48 -443 -100 -968 -52 -525 -98 -974 -101 -997
l-6 -43 -79 0 c-133 0 -240 -56 -292 -154 -22 -41 -22 -41 -25 -835 -3 -904
-7 -857 78 -942 25 -25 63 -52 84 -60 36 -13 36 -14 31 -54 -5 -38 -75 -735
-75 -748 0 -4 111 -8 248 -8 153 -1 228 -4 196 -9 -64 -9 -203 -55 -269 -88
-280 -140 -486 -438 -513 -743 -42 -474 241 -879 707 -1012 l76 -22 3368 -3
c3709 -2 3416 -8 3457 60 11 18 20 44 20 58 0 39 -33 92 -71 112 -32 17 -108
18 -1785 18 -1697 0 -1753 1 -1826 19 -79 20 -195 74 -238 110 l-25 20 1725 1
c1367 0 1730 3 1750 13 43 21 39 85 -5 105 -20 9 -469 12 -1815 12 l-1788 0
-22 36 c-29 46 -70 131 -70 144 0 7 571 10 1710 10 1697 0 1710 0 1730 20 25
25 25 51 3 79 l-18 21 -1730 3 -1730 2 0 95 0 95 1743 5 c1711 5 1744 5 1758
24 19 27 18 52 -6 76 -20 20 -33 20 -1740 20 -1177 0 -1720 3 -1720 10 0 14
46 105 78 152 l25 38 1798 0 c1621 0 1799 2 1813 16 22 21 20 67 -2 87 -17 16
-153 17 -1748 17 l-1729 1 25 21 c34 29 178 96 237 110 35 9 524 13 1824 17
1758 6 1777 6 1799 26 28 25 50 68 50 95 0 37 -32 91 -64 111 l-31 19 33 0 32
0 0 394 0 393 73 5 c87 6 141 31 190 89 69 80 66 47 67 903 0 528 -3 783 -11
810 -25 89 -86 152 -181 187 -52 19 -105 19 -2888 19 l-2835 0 -99 993 c-54
545 -100 1000 -103 1010 -4 16 -36 17 -494 17 -383 0 -491 -3 -494 -12z m3914
-2314 c81 -24 153 -99 180 -188 13 -43 21 -95 21 -142 l0 -74 -110 0 -110 0 0
48 c0 107 -38 162 -112 162 -30 0 -46 -7 -69 -29 -27 -27 -29 -35 -29 -101 0
-107 24 -145 199 -319 153 -151 189 -200 217 -299 19 -63 21 -219 5 -279 -31
-107 -106 -189 -203 -218 -68 -20 -192 -19 -257 2 -62 20 -134 80 -162 135
-36 71 -61 235 -43 282 5 13 25 16 115 16 l109 0 0 -76 c0 -100 18 -140 71
-155 50 -15 95 -3 123 34 17 23 21 43 21 105 0 67 -4 84 -30 129 -17 30 -95
118 -176 200 -125 127 -151 159 -185 227 -35 72 -39 87 -42 176 -8 195 57 312
201 361 66 23 195 25 266 3z m1941 -10 c25 -12 62 -37 82 -58 72 -72 95 -156
90 -328 l-3 -98 -109 0 -110 0 0 104 c0 146 -17 183 -89 193 -54 7 -97 -17
-111 -65 -8 -25 -10 -180 -8 -480 l3 -444 34 -30 c29 -26 39 -30 74 -25 25 3
50 16 66 31 25 26 26 31 29 171 l3 145 111 0 110 0 -4 -167 c-4 -199 -18 -244
-98 -316 -61 -55 -128 -77 -231 -77 -161 0 -268 69 -313 202 -23 68 -25 1002
-2 1067 31 92 90 151 181 184 70 24 231 20 295 -9z m-5600 -4 c0 -6 9 -64 20
-128 11 -64 36 -216 55 -337 20 -121 54 -330 75 -465 22 -135 49 -297 60 -360
11 -64 20 -119 20 -123 0 -11 -228 -8 -235 3 -4 6 -13 57 -21 113 -7 56 -17
114 -20 130 l-6 27 -118 0 -118 0 -6 -27 c-3 -16 -7 -46 -10 -68 -3 -22 -10
-73 -16 -112 l-12 -73 -110 0 -110 0 6 38 c18 113 91 565 121 742 18 113 48
293 65 400 17 107 33 207 36 223 l6 27 159 0 c104 0 159 -4 159 -10z m558
-702 l-3 -713 -115 0 -115 0 -3 713 -2 712 120 0 120 0 -2 -712z m677 684 c64
-29 91 -55 123 -117 24 -46 26 -62 30 -196 5 -190 -8 -243 -78 -311 l-48 -46
37 -25 c23 -16 47 -44 61 -74 22 -45 24 -65 31 -308 4 -143 12 -273 18 -288 6
-16 11 -30 11 -33 0 -2 -54 -4 -119 -4 -103 0 -120 2 -127 18 -4 9 -11 127
-14 262 -7 317 -13 330 -151 330 l-59 0 0 -305 0 -306 -117 3 -118 3 -3 713
-2 713 237 -3 c224 -3 241 -4 288 -26z m1025 -529 c0 -568 -5 -650 -39 -728
-23 -53 -75 -103 -131 -128 -47 -21 -205 -35 -254 -23 l-27 7 3 102 3 102 51
-3 c30 -2 66 3 88 12 67 28 66 17 66 651 l0 565 120 0 120 0 0 -557z m372 -34
l3 -591 34 -30 c30 -26 39 -30 78 -25 53 6 79 28 93 76 6 22 10 254 10 599 l0
562 116 0 115 0 -3 -597 -3 -598 -24 -59 c-29 -73 -79 -129 -145 -164 -47 -25
-61 -27 -166 -27 -99 0 -122 3 -165 23 -93 43 -146 114 -170 228 -12 56 -15
178 -15 632 l0 562 120 0 119 0 3 -591z m1998 486 l0 -105 -115 0 -115 0 -2
-607 -3 -608 -117 -3 -118 -3 0 610 0 610 -117 3 -118 3 -1 103 -1 102 354 0
353 0 0 -105z m330 -610 l0 -715 -115 0 -115 0 0 715 0 715 115 0 115 0 0
-715z m1560 610 l0 -105 -195 0 -195 0 2 -182 3 -183 153 -3 152 -3 0 -104 0
-105 -155 0 -155 0 2 -212 3 -213 193 -3 192 -2 0 -105 0 -105 -310 0 -310 0
0 715 0 715 310 0 310 0 0 -105z m-4530 -1603 c0 -4 -173 -180 -384 -391 -345
-345 -385 -382 -390 -360 -5 22 -76 721 -76 748 0 8 114 11 425 11 234 0 425
-3 425 -8z m2660 5 c0 -1 -175 -178 -390 -392 l-390 -390 0 393 0 392 390 0
c215 0 390 -1 390 -3z"/>
<path d="M2421 5163 c-7 -54 -23 -177 -36 -273 -14 -96 -27 -194 -30 -217 l-6
-43 90 0 c50 0 91 3 91 8 2 23 -86 622 -91 622 -3 0 -11 -44 -18 -97z"/>
<path d="M3560 5169 l0 -202 66 7 c37 4 75 11 85 17 45 24 68 130 54 255 -6
55 -12 73 -35 96 -26 25 -35 28 -99 28 l-71 0 0 -201z"/>
</g>
</svg>
